<svg width="30" height="32" viewBox="0 0 30 32" fill="none" xmlns="http://www.w3.org/2000/svg">
<path d="M17.7704 13.3299L15 14.9384L12.2296 13.3265C11.8473 13.1045 11.3706 13.259 11.1649 13.6718C10.9592 14.0846 11.1024 14.5992 11.4847 14.8213L14.2143 16.4102V18.4462C14.2143 18.9148 14.5661 19.2946 15 19.2946C15.4339 19.2946 15.7857 18.9148 15.7857 18.4462V16.4102L18.5153 14.8264C18.8976 14.6043 19.0408 14.0897 18.8351 13.6769C18.6294 13.2641 18.1527 13.1095 17.7704 13.3316V13.3299Z" fill="#ABB4BD"/>
<path d="M26 21.8403V9.96357C25.9999 9.66517 25.8546 9.38878 25.6174 9.2357C25.6071 9.22891 25.5954 9.22637 25.5844 9.22043L15.3701 3.28208C15.1376 3.14694 14.8577 3.14694 14.6252 3.28208L4.41093 9.22043C4.39993 9.22637 4.38815 9.22891 4.37793 9.2357C4.14251 9.39004 3.99912 9.6662 4 9.96357V21.8403C4.00016 22.1522 4.15887 22.4389 4.41329 22.5868L14.6276 28.5252C14.8601 28.6603 15.1399 28.6603 15.3724 28.5252L25.5867 22.5868C25.8411 22.4389 25.9998 22.1522 26 21.8403ZM24.4286 21.3313L15.7857 26.3585V23.5369C15.7857 23.0684 15.4339 22.6886 15 22.6886C14.5661 22.6886 14.2143 23.0684 14.2143 23.5369V26.3585L5.57143 21.3313V11.3828L7.55615 12.5349C7.93845 12.757 8.4151 12.6024 8.62079 12.1896C8.82648 11.7768 8.6833 11.2622 8.301 11.0401L6.44436 9.96357L15 4.98893L23.5556 9.96357L21.699 11.041C21.3167 11.263 21.1735 11.7777 21.3792 12.1905C21.5849 12.6032 22.0616 12.7578 22.4439 12.5357L24.4286 11.3828V21.3313Z" fill="#ABB4BD"/>
</svg>
